<svg width="215" height="56" viewBox="0 0 215 56" fill="none" xmlns="http://www.w3.org/2000/svg">
<path d="M12.24 45V30.168L0.96 11.4H6.336L14.592 25.704H14.688L22.992 11.4H28.368L17.04 30.216V45H12.24ZM45.1358 15.72V45H40.3358V15.72H30.7838V11.4H54.6877V15.72H45.1358ZM89.7094 45V17.64H89.6134L79.7254 45H74.9254L65.0854 17.64H64.9894V45H60.4294V11.4H67.1974L77.2774 39.432H77.3734L87.5014 11.4H94.2694V45H89.7094Z" fill="#F43F5E"/>
<rect x="107" width="108" height="56" rx="8" fill="#4B5563"/>
<path d="M118.24 27.68V18.032L122.416 15.62H130.804L134.98 18.032V21.74H131.38V18.86H121.84V26.492H130.804L134.98 28.904V38.768L130.804 41.18H122.056L117.88 38.768V35.06H121.48V37.94H131.38V30.092H122.416L118.24 27.68ZM139.643 26.132V23H142.955V19.976L146.447 17.96V23H150.767V26.132H146.447V37.868H150.767V41H147.131L142.955 38.588V26.132H139.643ZM158.586 33.62V38.048H165.822V33.62H158.586ZM159.27 41.18L155.094 38.768V32.9L159.27 30.488H165.822V26.132H156.894V23H165.138L169.314 25.412V41.18H168.378L165.822 39.704L163.266 41.18H159.27ZM173.639 26.132V23H176.951V19.976L180.443 17.96V23H184.763V26.132H180.443V37.868H184.763V41H181.127L176.951 38.588V26.132H173.639ZM203.346 32.72V38.588L199.17 41H189.81V37.868H199.854V33.44H193.986L189.81 31.028V25.412L193.986 23H202.986V26.132H193.302V30.308H199.17L203.346 32.72Z" fill="#FDF9F2"/>
</svg>
